<svg width="747" height="547" viewBox="0 0 747 547" fill="none" xmlns="http://www.w3.org/2000/svg">
<g id="Illustration">
<g id="Shape">
<g id="Group 59">
<path id="Path" opacity="0.0845424" d="M674.32 166.249C683.698 153.731 701.453 151.18 713.979 160.552C726.379 169.83 729.005 187.315 719.957 199.81L719.679 200.187L645.379 299.374C635.916 312.007 618.34 315.21 605.04 306.802L604.639 306.544L557.865 275.948L510.705 344.593C501.937 357.356 484.564 360.694 471.702 352.171L471.313 351.909C458.543 343.146 455.204 325.783 463.732 312.928L463.994 312.54L525.793 222.586C534.999 209.185 553.141 205.492 566.841 214.144L567.255 214.41L614.898 245.575L674.32 166.249Z" fill="#7367F0"/>
<path id="Path_2" opacity="0.0845424" d="M431.118 5.29424C433.496 1.83984 438.232 0.961284 441.696 3.33194C445.115 5.67139 446.018 10.3009 443.756 13.7421L443.664 13.8791L425.148 40.779C422.433 44.5698 417.181 45.4829 413.345 42.8606L413.208 42.7654L402.574 35.1946L391.048 53.4538C388.839 56.9536 384.234 58.0368 380.696 55.9185L380.557 55.8332C377.047 53.6305 375.96 49.0392 378.085 45.5109L378.17 45.3722L393.455 21.158C395.973 17.169 401.257 15.9705 405.258 18.4812L405.467 18.6168L405.673 18.7584L416.53 26.4883L431.118 5.29424Z" fill="#7367F0"/>
<path id="+" opacity="0.070266" fill-rule="evenodd" clip-rule="evenodd" d="M633.404 131.308C634.784 131.308 635.904 130.189 635.904 128.808V110.831H653.893C655.273 110.831 656.393 109.712 656.393 108.331V99.6761C656.393 98.2954 655.273 97.1761 653.893 97.1761H635.904V79.0664C635.904 77.6857 634.784 76.5664 633.404 76.5664H624.608C623.227 76.5664 622.108 77.6857 622.108 79.0664V97.1761H604.119C602.738 97.1761 601.619 98.2954 601.619 99.6761V108.331C601.619 109.712 602.738 110.831 604.119 110.831H622.108V128.808C622.108 130.189 623.227 131.308 624.608 131.308H633.404Z" fill="#00CFE8"/>
<path id="Oval" opacity="0.0739397" fill-rule="evenodd" clip-rule="evenodd" d="M92.602 22C143.193 22 184.206 62.9886 184.206 113.551C184.206 164.113 143.193 205.101 92.602 205.101C42.0105 205.101 0.998047 164.113 0.998047 113.551C0.998047 62.9886 42.0105 22 92.602 22ZM92.602 67.3034C67.0455 67.3034 46.3278 88.0089 46.3278 113.551C46.3278 139.092 67.0455 159.798 92.602 159.798C118.159 159.798 138.876 139.092 138.876 113.551C138.876 88.0089 118.159 67.3034 92.602 67.3034Z" fill="#00CFE8"/>
</g>
</g>
<g id="Meeting">
<g id="Group 63">
<path id="Rectangle" fill-rule="evenodd" clip-rule="evenodd" d="M61.5957 103C61.5957 94.1634 68.7591 87 77.5957 87H547.724C556.561 87 563.724 94.1634 563.724 103V307.224C563.724 316.061 556.561 323.224 547.724 323.224H77.5957C68.7592 323.224 61.5957 316.061 61.5957 307.224V103Z" fill="#141A2B"/>
<path id="Rectangle_2" fill-rule="evenodd" clip-rule="evenodd" d="M69.1465 103C69.1465 94.1634 76.3099 87 85.1465 87H547.724C556.561 87 563.724 94.1634 563.724 103V307.224C563.724 316.061 556.561 323.224 547.724 323.224H85.1465C76.31 323.224 69.1465 316.061 69.1465 307.224V103Z" fill="#181F33"/>
<path id="Rectangle_3" fill-rule="evenodd" clip-rule="evenodd" d="M76.6973 104.559C76.6973 99.0362 81.1744 94.5591 86.6973 94.5591H546.173C551.696 94.5591 556.173 99.0362 556.173 104.559V305.665C556.173 311.188 551.696 315.665 546.173 315.665H86.6973C81.1744 315.665 76.6973 311.188 76.6973 305.665L76.6973 104.559Z" fill="#283046"/>
<path id="Rectangle_4" fill-rule="evenodd" clip-rule="evenodd" d="M275.85 301.823C275.85 298.509 278.536 295.823 281.85 295.823H351.021C354.334 295.823 357.021 298.509 357.021 301.823V315.665H275.85V301.823Z" fill="#D4EFFF"/>
<path id="Rectangle_5" d="M283.4 301.823C283.4 298.509 286.087 295.823 289.4 295.823H358.572C361.885 295.823 364.572 298.509 364.572 301.823V323.225H283.4V301.823Z" fill="#91D6FF"/>
</g>
<g id="ElementCard20">
<g id="Rectangle_6" filter="url(#filter0_d)">
<path fill-rule="evenodd" clip-rule="evenodd" d="M90.8555 109.397C90.8555 106.421 93.2681 104.008 96.2442 104.008H221.268C224.244 104.008 226.657 106.421 226.657 109.397V150.047C226.657 153.023 224.244 155.436 221.268 155.436H96.2442C93.2681 155.436 90.8555 153.023 90.8555 150.047V109.397Z" fill="#313A53"/>
</g>
<path id="Rectangle_7" opacity="0.454078" fill-rule="evenodd" clip-rule="evenodd" d="M131.037 134.559C131.037 133.715 131.721 133.031 132.565 133.031H157.992C158.836 133.031 159.52 133.715 159.52 134.559V134.559C159.52 135.403 158.836 136.087 157.992 136.087H132.565C131.721 136.087 131.037 135.403 131.037 134.559V134.559Z" fill="#C7C1FF"/>
<path id="Rectangle_8" fill-rule="evenodd" clip-rule="evenodd" d="M131.037 125.903C131.037 125.059 131.721 124.375 132.565 124.375H147.82C148.663 124.375 149.347 125.059 149.347 125.903V125.903C149.347 126.747 148.663 127.431 147.82 127.431H132.565C131.721 127.431 131.037 126.747 131.037 125.903V125.903Z" fill="#8478FF"/>
<g id="Group 9">
<path id="Path_3" fill-rule="evenodd" clip-rule="evenodd" d="M205.813 122.284C207.983 119.429 212.053 118.876 214.904 121.049C215.56 121.548 216.115 122.169 216.539 122.876C216.758 123.241 216.639 123.714 216.275 123.933C215.911 124.151 215.439 124.033 215.22 123.668C214.897 123.128 214.473 122.655 213.973 122.274C211.842 120.651 208.819 121.022 207.14 123.085L207.037 123.216L204.652 126.353C200.927 131.254 194.624 133.414 188.693 131.848L188.439 131.779L186.521 131.237C186.397 131.202 186.273 131.171 186.147 131.143C182.639 130.369 179.168 132.541 178.309 136.011L178.269 136.182L177.873 137.98C177.733 138.617 177.462 139.217 177.076 139.741C175.551 141.817 172.633 142.262 170.559 140.735C170.217 140.483 170.144 140.001 170.396 139.659C170.647 139.316 171.129 139.243 171.471 139.495C172.86 140.518 174.815 140.22 175.837 138.829C176.063 138.521 176.231 138.175 176.332 137.808L176.371 137.649L176.767 135.851C177.735 131.451 182.083 128.67 186.478 129.639L186.709 129.694L186.938 129.755L188.857 130.297C194.172 131.799 199.857 129.946 203.272 125.622L203.428 125.421L205.813 122.284Z" fill="#8478FF"/>
<path id="Path_4" fill-rule="evenodd" clip-rule="evenodd" d="M198.882 121.353C200.452 117.857 204.557 116.296 208.049 117.869C208.751 118.184 209.395 118.615 209.956 119.142C211.275 120.384 212.497 122.347 213.642 125.035C213.808 125.426 213.627 125.878 213.236 126.045C212.845 126.212 212.394 126.03 212.227 125.639C211.158 123.13 210.043 121.338 208.902 120.264C208.466 119.854 207.965 119.519 207.419 119.273C204.75 118.072 201.623 119.22 200.353 121.838L200.285 121.984L199.79 123.086C199.675 123.343 199.542 123.591 199.394 123.83C197.566 126.766 193.707 127.663 190.774 125.834C190.425 125.616 190.042 125.458 189.641 125.366C187.689 124.919 185.745 126.102 185.23 128.022L185.197 128.157L184.341 131.899C184.083 133.026 183.535 134.067 182.753 134.917C180.312 137.571 176.214 137.785 173.513 135.434L173.369 135.305L169.883 132.092C169.57 131.804 169.55 131.317 169.838 131.004C170.107 130.712 170.548 130.675 170.86 130.905L170.925 130.959L174.411 134.173C176.484 136.083 179.713 135.95 181.621 133.874C182.176 133.271 182.577 132.543 182.792 131.754L182.841 131.555L183.697 127.813C184.344 124.985 187.159 123.217 189.984 123.865C190.481 123.979 190.958 124.165 191.4 124.416L191.588 124.527C193.8 125.907 196.71 125.23 198.088 123.016C198.163 122.896 198.232 122.772 198.296 122.646L198.387 122.455L198.882 121.353Z" fill="#C7C1FF"/>
</g>
<ellipse id="Oval_2" cx="113.489" cy="130.231" rx="10.4267" ry="10.4383" fill="#8478FF"/>
</g>
<g id="ElementCard3">
<g id="Rectangle_9" filter="url(#filter1_d)">
<path fill-rule="evenodd" clip-rule="evenodd" d="M90.8555 167.592C90.8555 164.83 93.094 162.592 95.8555 162.592H254.805C257.566 162.592 259.805 164.83 259.805 167.592V300.271C259.805 303.033 257.566 305.271 254.805 305.271H95.8555C93.094 305.271 90.8555 303.033 90.8555 300.271V167.592Z" fill="#313A53"/>
</g>
<mask id="mask0" mask-type="alpha" maskUnits="userSpaceOnUse" x="90" y="162" width="170" height="144">
<path id="Rectangle_10" fill-rule="evenodd" clip-rule="evenodd" d="M90.8555 167.592C90.8555 164.83 93.094 162.592 95.8555 162.592H254.805C257.566 162.592 259.805 164.83 259.805 167.592V300.271C259.805 303.033 257.566 305.271 254.805 305.271H95.8555C93.094 305.271 90.8555 303.033 90.8555 300.271V167.592Z" fill="white"/>
</mask>
<g mask="url(#mask0)">
<g id="Path 3" filter="url(#filter2_d)">
<path d="M113.508 272.2C113.508 272.2 133.593 266.426 142.449 254.639C151.305 242.853 154.291 231.428 169.522 231.428C184.754 231.428 186.706 248.926 203.172 248.926C219.638 248.926 220.538 226.612 226.011 217.752C231.483 208.892 240.928 208.892 240.928 208.892" stroke="#8EEAF6" stroke-width="4.004" stroke-linecap="round"/>
</g>
<path id="Path 3_2" opacity="0.414737" fill-rule="evenodd" clip-rule="evenodd" d="M113.508 270.982C113.508 270.982 133.593 265.232 142.449 253.497C151.305 241.761 154.291 230.386 169.522 230.386C184.754 230.386 186.706 247.808 203.172 247.808C219.638 247.808 220.538 225.59 226.011 216.769C231.483 207.947 240.928 207.947 240.928 207.947V282.348C240.928 284.049 239.549 285.428 237.848 285.428H116.588C114.887 285.428 113.508 284.049 113.508 282.348V270.982Z" fill="#CEF9FF"/>
<rect id="Rectangle_11" x="104.07" y="176.765" width="52.8556" height="5.66939" rx="2.83469" fill="#8EEAF6"/>
<path id="Rectangle_12" fill-rule="evenodd" clip-rule="evenodd" d="M104.07 193.773C104.07 192.208 105.339 190.939 106.905 190.939H125.776C127.341 190.939 128.61 192.208 128.61 193.773V193.773C128.61 195.339 127.341 196.608 125.776 196.608H106.905C105.339 196.608 104.07 195.339 104.07 193.773V193.773Z" fill="#8EEAF6" fill-opacity="0.401934"/>
<ellipse id="Oval_3" cx="227.241" cy="180.073" rx="3.30348" ry="3.30714" fill="#8EEAF6" fill-opacity="0.451705"/>
<ellipse id="Oval_4" cx="236.68" cy="180.073" rx="3.30348" ry="3.30714" fill="#8EEAF6" fill-opacity="0.451705"/>
<ellipse id="Oval_5" cx="246.118" cy="180.073" rx="3.30348" ry="3.30714" fill="#8EEAF6" fill-opacity="0.451705"/>
</g>
</g>
<g id="ElementCard11">
<g id="Rectangle_13" filter="url(#filter3_d)">
<path fill-rule="evenodd" clip-rule="evenodd" d="M286.232 124.721C286.232 120.588 289.583 117.237 293.717 117.237H518.929C523.063 117.237 526.414 120.588 526.414 124.721V275.237C526.414 279.371 523.063 282.721 518.929 282.721H293.717C289.583 282.721 286.232 279.371 286.232 275.237V124.721Z" fill="#313A53"/>
</g>
<g id="Group 26">
<path id="Path_5" fill-rule="evenodd" clip-rule="evenodd" d="M326.852 202.101V261.287H318.021V202.101H326.852Z" fill="#E7E4FF"/>
<path id="Path_6" fill-rule="evenodd" clip-rule="evenodd" d="M326.852 216.245V261.287H318.021V216.245H326.852Z" fill="#C7C1FF"/>
<path id="Path_7" fill-rule="evenodd" clip-rule="evenodd" d="M326.852 244.533V261.287H318.021V244.533H326.852Z" fill="#8478FF"/>
</g>
<g id="Group 26_2">
<path id="Path_8" fill-rule="evenodd" clip-rule="evenodd" d="M348.043 187.957V261.287H339.213V187.957H348.043Z" fill="#E7E4FF"/>
<path id="Path_9" fill-rule="evenodd" clip-rule="evenodd" d="M348.043 209.173V261.287H339.213V209.173H348.043Z" fill="#C7C1FF"/>
<path id="Path_10" fill-rule="evenodd" clip-rule="evenodd" d="M348.043 244.533V261.287H339.213V244.533H348.043Z" fill="#8478FF"/>
</g>
<g id="Group 26_3">
<path id="Path_11" fill-rule="evenodd" clip-rule="evenodd" d="M369.236 198.565V261.287H360.406V198.565H369.236Z" fill="#E7E4FF"/>
<path id="Path_12" fill-rule="evenodd" clip-rule="evenodd" d="M369.236 219.781V261.287H360.406V219.781H369.236Z" fill="#C7C1FF"/>
<path id="Path_13" fill-rule="evenodd" clip-rule="evenodd" d="M369.236 248.069V261.287H360.406V248.069H369.236Z" fill="#8478FF"/>
</g>
<g id="Group 26_4">
<path id="Path_14" fill-rule="evenodd" clip-rule="evenodd" d="M390.428 180.885V261.287H381.598V180.885H390.428Z" fill="#E7E4FF"/>
<path id="Path_15" fill-rule="evenodd" clip-rule="evenodd" d="M390.428 202.101V261.287H381.598V202.101H390.428Z" fill="#C7C1FF"/>
<path id="Path_16" fill-rule="evenodd" clip-rule="evenodd" d="M390.428 230.389V261.287H381.598V230.389H390.428Z" fill="#8478FF"/>
</g>
<g id="Group 26_5">
<path id="Path_17" fill-rule="evenodd" clip-rule="evenodd" d="M411.621 166.741V261.287H402.791V166.741H411.621Z" fill="#E7E4FF"/>
<path id="Path_18" fill-rule="evenodd" clip-rule="evenodd" d="M411.621 195.029V261.287H402.791V195.029H411.621Z" fill="#C7C1FF"/>
<path id="Path_19" fill-rule="evenodd" clip-rule="evenodd" d="M411.621 237.461V261.287H402.791V237.461H411.621Z" fill="#8478FF"/>
</g>
<g id="Group 26_6">
<path id="Path_20" fill-rule="evenodd" clip-rule="evenodd" d="M432.815 187.957V261.287H423.984V187.957H432.815Z" fill="#E7E4FF"/>
<path id="Path_21" fill-rule="evenodd" clip-rule="evenodd" d="M432.815 209.173V261.287H423.984V209.173H432.815Z" fill="#C7C1FF"/>
<path id="Path_22" fill-rule="evenodd" clip-rule="evenodd" d="M432.815 241.704V261.287H423.984V241.704H432.815Z" fill="#8478FF"/>
</g>
<g id="Group 26_7">
<path id="Path_23" fill-rule="evenodd" clip-rule="evenodd" d="M454.006 195.029V261.287H445.176V195.029H454.006Z" fill="#E7E4FF"/>
<path id="Path_24" fill-rule="evenodd" clip-rule="evenodd" d="M454.006 209.173V261.287H445.176V209.173H454.006Z" fill="#C7C1FF"/>
<path id="Path_25" fill-rule="evenodd" clip-rule="evenodd" d="M454.006 236.754V261.287H445.176V236.754H454.006Z" fill="#8478FF"/>
</g>
<g id="Group 26_8">
<path id="Path_26" fill-rule="evenodd" clip-rule="evenodd" d="M475.199 180.885V261.287H466.369V180.885H475.199Z" fill="#E7E4FF"/>
<path id="Path_27" fill-rule="evenodd" clip-rule="evenodd" d="M475.199 209.173V261.287H466.369V209.173H475.199Z" fill="#C7C1FF"/>
<path id="Path_28" fill-rule="evenodd" clip-rule="evenodd" d="M475.199 243.825V261.287H466.369V243.825H475.199Z" fill="#8478FF"/>
</g>
<g id="Group 26_9">
<path id="Path_29" fill-rule="evenodd" clip-rule="evenodd" d="M496.391 195.029V261.287H487.561V195.029H496.391Z" fill="#E7E4FF"/>
<path id="Path_30" fill-rule="evenodd" clip-rule="evenodd" d="M496.391 209.173V261.287H487.561V209.173H496.391Z" fill="#C7C1FF"/>
<path id="Path_31" fill-rule="evenodd" clip-rule="evenodd" d="M496.391 243.826V261.287H487.561V243.826H496.391Z" fill="#8478FF"/>
</g>
<path id="Rectangle_14" opacity="0.57573" fill-rule="evenodd" clip-rule="evenodd" d="M315.195 147.647C315.195 146.475 316.145 145.525 317.317 145.525H387.954C389.125 145.525 390.075 146.475 390.075 147.647V147.647C390.075 148.818 389.125 149.768 387.954 149.768H317.317C316.145 149.768 315.195 148.818 315.195 147.647V147.647Z" fill="#8C81FF"/>
<rect id="Rectangle_15" x="315.195" y="133.502" width="39.5593" height="4.2432" rx="2.1216" fill="#8478FF"/>
</g>











</g>
</g>

</svg>
